<?xml version="1.0" encoding="utf-8"?>
<!-- Generator: Adobe Illustrator 16.0.0, SVG Export Plug-In . SVG Version: 6.00 Build 0)  -->
<!DOCTYPE svg PUBLIC "-//W3C//DTD SVG 1.1//EN" "http://www.w3.org/Graphics/SVG/1.1/DTD/svg11.dtd">
<svg version="1.1" id="Layer_1" xmlns="http://www.w3.org/2000/svg" xmlns:xlink="http://www.w3.org/1999/xlink" x="0px" y="0px"
	 width="108px" height="30px" viewBox="0 0 108 30" enable-background="new 0 0 108 30" xml:space="preserve">
<g>
	<g>
		<path d="M0,7.025h1.518v9.079h3.007v1.519H0V7.025z"/>
		<path d="M7.487,7.025h1.265l2.366,10.598H9.6l-0.446-2.277H7.085l-0.447,2.277H5.12L7.487,7.025z M8.126,10.077h-0.03l-0.744,3.84
			h1.518L8.126,10.077z"/>
		<path d="M17.057,10.077h-1.518V9.734c0-0.348-0.082-0.647-0.246-0.9s-0.439-0.38-0.826-0.38c-0.208,0-0.379,0.04-0.513,0.119
			c-0.134,0.08-0.238,0.182-0.312,0.306c-0.075,0.124-0.126,0.268-0.156,0.432c-0.03,0.163-0.045,0.335-0.045,0.513
			c0,0.209,0.007,0.385,0.022,0.528c0.015,0.145,0.052,0.269,0.111,0.372c0.06,0.104,0.146,0.196,0.261,0.275
			c0.114,0.08,0.27,0.159,0.469,0.238l1.161,0.462c0.337,0.129,0.61,0.28,0.818,0.454s0.37,0.377,0.484,0.61
			c0.114,0.232,0.191,0.501,0.23,0.804s0.06,0.647,0.06,1.034c0,0.446-0.044,0.86-0.134,1.242c-0.089,0.383-0.236,0.71-0.439,0.982
			c-0.204,0.273-0.474,0.489-0.812,0.647c-0.337,0.159-0.749,0.238-1.235,0.238c-0.367,0-0.709-0.064-1.027-0.193
			s-0.59-0.305-0.818-0.528c-0.229-0.224-0.41-0.488-0.543-0.796s-0.201-0.641-0.201-0.998v-0.565h1.518v0.477
			c0,0.278,0.082,0.528,0.246,0.752c0.164,0.223,0.439,0.335,0.826,0.335c0.258,0,0.459-0.037,0.603-0.112
			c0.144-0.074,0.253-0.179,0.328-0.312c0.074-0.134,0.121-0.3,0.141-0.498s0.03-0.417,0.03-0.655c0-0.277-0.01-0.506-0.03-0.685
			s-0.062-0.322-0.126-0.432s-0.154-0.198-0.268-0.268s-0.266-0.145-0.454-0.224l-1.087-0.446c-0.655-0.269-1.094-0.623-1.317-1.064
			s-0.335-0.995-0.335-1.659c0-0.397,0.054-0.774,0.164-1.132c0.109-0.356,0.271-0.664,0.484-0.923
			c0.213-0.258,0.484-0.463,0.811-0.617c0.328-0.154,0.709-0.23,1.146-0.23c0.377,0,0.722,0.069,1.035,0.208
			s0.581,0.322,0.804,0.551s0.395,0.483,0.513,0.767c0.119,0.282,0.179,0.573,0.179,0.87V10.077z"/>
		<path d="M26.374,15.256c0,0.328-0.062,0.641-0.186,0.938c-0.124,0.297-0.295,0.558-0.513,0.781
			c-0.219,0.223-0.474,0.401-0.767,0.535c-0.293,0.135-0.608,0.201-0.945,0.201c-0.288,0-0.581-0.04-0.878-0.119
			c-0.298-0.079-0.566-0.216-0.804-0.409c-0.238-0.193-0.434-0.448-0.588-0.767c-0.154-0.317-0.231-0.719-0.231-1.205V9.377
			c0-0.347,0.06-0.67,0.179-0.967c0.119-0.298,0.288-0.556,0.506-0.774c0.218-0.218,0.479-0.39,0.782-0.514
			c0.302-0.124,0.637-0.186,1.004-0.186c0.347,0,0.67,0.062,0.968,0.186c0.297,0.124,0.555,0.298,0.774,0.521
			c0.218,0.223,0.389,0.491,0.513,0.804s0.186,0.652,0.186,1.02v0.595h-1.518V9.556c0-0.298-0.084-0.556-0.253-0.773
			c-0.169-0.219-0.397-0.328-0.685-0.328c-0.377,0-0.628,0.117-0.752,0.35c-0.124,0.233-0.186,0.528-0.186,0.886v5.418
			c0,0.308,0.067,0.565,0.201,0.774c0.134,0.208,0.375,0.312,0.722,0.312c0.099,0,0.206-0.018,0.32-0.053
			c0.114-0.034,0.218-0.092,0.312-0.171c0.094-0.079,0.171-0.188,0.23-0.327s0.089-0.312,0.089-0.521v-0.521h1.518V15.256z"/>
		<path d="M27.892,7.025h2.441c1.786,0,2.679,1.037,2.679,3.11c0,0.616-0.097,1.145-0.29,1.586c-0.194,0.441-0.534,0.796-1.02,1.063
			l1.637,4.838h-1.607l-1.414-4.525H29.41v4.525h-1.518V7.025z M29.41,11.759h0.863c0.268,0,0.481-0.037,0.64-0.112
			c0.159-0.074,0.28-0.181,0.365-0.319c0.084-0.139,0.141-0.311,0.171-0.514s0.045-0.439,0.045-0.707s-0.015-0.504-0.045-0.707
			s-0.092-0.377-0.186-0.521c-0.094-0.145-0.226-0.251-0.394-0.32c-0.169-0.069-0.392-0.104-0.67-0.104H29.41V11.759z"/>
		<path d="M39.442,15.241c0,0.348-0.064,0.67-0.193,0.968s-0.305,0.558-0.528,0.781s-0.484,0.399-0.781,0.528
			c-0.298,0.129-0.616,0.193-0.953,0.193c-0.337,0-0.655-0.064-0.953-0.193c-0.298-0.129-0.558-0.305-0.781-0.528
			c-0.224-0.224-0.4-0.483-0.529-0.781s-0.193-0.62-0.193-0.968V7.025h1.518v8.067c0,0.377,0.089,0.654,0.268,0.833
			s0.402,0.269,0.67,0.269c0.268,0,0.491-0.09,0.669-0.269c0.179-0.179,0.268-0.456,0.268-0.833V7.025h1.518V15.241z"/>
		<path d="M45.976,15.256c0,0.328-0.062,0.641-0.186,0.938c-0.124,0.297-0.295,0.558-0.513,0.781
			c-0.219,0.223-0.474,0.401-0.767,0.535c-0.293,0.135-0.608,0.201-0.945,0.201c-0.288,0-0.581-0.04-0.878-0.119
			c-0.298-0.079-0.566-0.216-0.804-0.409c-0.238-0.193-0.434-0.448-0.588-0.767c-0.154-0.317-0.231-0.719-0.231-1.205V9.377
			c0-0.347,0.06-0.67,0.179-0.967c0.119-0.298,0.288-0.556,0.506-0.774c0.218-0.218,0.479-0.39,0.782-0.514
			c0.302-0.124,0.637-0.186,1.004-0.186c0.347,0,0.67,0.062,0.968,0.186c0.297,0.124,0.555,0.298,0.774,0.521
			c0.218,0.223,0.389,0.491,0.513,0.804s0.186,0.652,0.186,1.02v0.595h-1.518V9.556c0-0.298-0.084-0.556-0.253-0.773
			c-0.169-0.219-0.397-0.328-0.685-0.328c-0.377,0-0.628,0.117-0.752,0.35c-0.124,0.233-0.186,0.528-0.186,0.886v5.418
			c0,0.308,0.067,0.565,0.201,0.774c0.134,0.208,0.375,0.312,0.722,0.312c0.099,0,0.206-0.018,0.32-0.053
			c0.114-0.034,0.218-0.092,0.312-0.171c0.094-0.079,0.171-0.188,0.23-0.327s0.089-0.312,0.089-0.521v-0.521h1.518V15.256z"/>
		<path d="M47.509,7.025h4.525v1.429h-3.007v3.111h2.62v1.429h-2.62v3.11h3.007v1.519h-4.525V7.025z"/>
		<path d="M58.21,10.077h-1.518V9.734c0-0.348-0.082-0.647-0.246-0.9s-0.439-0.38-0.826-0.38c-0.208,0-0.379,0.04-0.513,0.119
			c-0.134,0.08-0.238,0.182-0.312,0.306c-0.075,0.124-0.126,0.268-0.156,0.432c-0.03,0.163-0.045,0.335-0.045,0.513
			c0,0.209,0.007,0.385,0.022,0.528c0.015,0.145,0.052,0.269,0.111,0.372c0.06,0.104,0.146,0.196,0.261,0.275
			c0.114,0.08,0.27,0.159,0.469,0.238l1.161,0.462c0.337,0.129,0.61,0.28,0.818,0.454s0.37,0.377,0.484,0.61
			c0.114,0.232,0.191,0.501,0.23,0.804s0.06,0.647,0.06,1.034c0,0.446-0.044,0.86-0.134,1.242c-0.089,0.383-0.236,0.71-0.439,0.982
			c-0.204,0.273-0.474,0.489-0.812,0.647c-0.337,0.159-0.749,0.238-1.235,0.238c-0.367,0-0.709-0.064-1.027-0.193
			s-0.59-0.305-0.818-0.528c-0.229-0.224-0.41-0.488-0.543-0.796s-0.201-0.641-0.201-0.998v-0.565h1.518v0.477
			c0,0.278,0.082,0.528,0.246,0.752c0.164,0.223,0.439,0.335,0.826,0.335c0.258,0,0.459-0.037,0.603-0.112
			c0.144-0.074,0.253-0.179,0.328-0.312c0.074-0.134,0.121-0.3,0.141-0.498s0.03-0.417,0.03-0.655c0-0.277-0.01-0.506-0.03-0.685
			S56.6,13.609,56.536,13.5s-0.154-0.198-0.268-0.268s-0.266-0.145-0.454-0.224l-1.087-0.446c-0.655-0.269-1.094-0.623-1.317-1.064
			s-0.335-0.995-0.335-1.659c0-0.397,0.054-0.774,0.164-1.132c0.109-0.356,0.271-0.664,0.484-0.923
			c0.213-0.258,0.484-0.463,0.811-0.617c0.328-0.154,0.709-0.23,1.146-0.23c0.377,0,0.722,0.069,1.035,0.208
			s0.581,0.322,0.804,0.551s0.395,0.483,0.513,0.767c0.119,0.282,0.179,0.573,0.179,0.87V10.077z"/>
		<path d="M59.549,16.104h1.518v1.519l-1.518,1.102V16.104z"/>
		<path d="M65.711,7.025h1.458l2.292,6.386h0.03V7.025h1.518v10.598h-1.429l-2.322-6.37h-0.03v6.37h-1.518V7.025z"/>
		<path d="M72.677,7.025h1.458l1.95,5.611h0.03l1.935-5.611h1.474v10.598h-1.518v-6.445h-0.03l-1.503,4.555h-0.759l-1.489-4.555
			h-0.03v6.445h-1.518V7.025z"/>
	</g>
	<g>
		<path fill="#414042" d="M107.387,12.267l-0.03,0.007c0.38-1,0.596-2.078,0.596-3.211c0-5.005-4.058-9.062-9.064-9.062
			c-5.006,0-9.063,4.058-9.063,9.062c0,1.133,0.216,2.211,0.596,3.211l-0.029-0.007l0.108,0.226c0.147,0.353,0.313,0.693,0.5,1.022
			l7.888,16.214l7.891-16.214c0.184-0.329,0.352-0.67,0.497-1.022L107.387,12.267z"/>
	</g>
	<g>
		<path fill="#FDB913" d="M92.952,9.063c0-3.279,2.66-5.938,5.938-5.938c3.28,0,5.938,2.659,5.938,5.938s-2.658,5.938-5.938,5.938
			C95.611,15.002,92.952,12.343,92.952,9.063"/>
	</g>
</g>
</svg>
