<?xml version="1.0" encoding="utf-8"?>
<!-- Generator: Adobe Illustrator 16.0.0, SVG Export Plug-In . SVG Version: 6.00 Build 0)  -->
<!DOCTYPE svg PUBLIC "-//W3C//DTD SVG 1.1//EN" "http://www.w3.org/Graphics/SVG/1.1/DTD/svg11.dtd">
<svg version="1.1" id="Layer_1" xmlns="http://www.w3.org/2000/svg" xmlns:xlink="http://www.w3.org/1999/xlink" x="0px" y="0px"
	 width="115px" height="37px" viewBox="0 0 115 37" enable-background="new 0 0 115 37" xml:space="preserve">
<g>
	<g>
		<path d="M4.912,32.917c0,0.327-0.062,0.64-0.186,0.938s-0.295,0.558-0.513,0.781c-0.219,0.224-0.474,0.402-0.767,0.536
			c-0.293,0.134-0.608,0.2-0.945,0.2c-0.288,0-0.581-0.039-0.878-0.118c-0.298-0.08-0.566-0.216-0.804-0.41
			c-0.238-0.193-0.434-0.448-0.588-0.767C0.077,33.76,0,33.358,0,32.872v-5.835c0-0.347,0.06-0.669,0.179-0.967
			s0.288-0.556,0.506-0.774c0.218-0.218,0.479-0.389,0.782-0.514c0.302-0.124,0.637-0.186,1.004-0.186
			c0.347,0,0.67,0.062,0.968,0.186c0.297,0.125,0.555,0.298,0.774,0.521c0.218,0.223,0.389,0.491,0.513,0.804
			s0.186,0.652,0.186,1.02v0.596H3.394v-0.507c0-0.298-0.084-0.556-0.253-0.773c-0.169-0.219-0.397-0.328-0.685-0.328
			c-0.377,0-0.628,0.117-0.752,0.351c-0.124,0.232-0.186,0.528-0.186,0.885v5.418c0,0.308,0.067,0.565,0.201,0.774
			c0.134,0.208,0.375,0.312,0.722,0.312c0.099,0,0.206-0.018,0.32-0.052c0.114-0.035,0.218-0.092,0.312-0.172
			c0.094-0.079,0.171-0.188,0.23-0.327s0.089-0.312,0.089-0.521v-0.521h1.518V32.917z"/>
		<path d="M6.475,24.686h1.518v10.598H6.475V24.686z"/>
		<path d="M14.661,32.901c0,0.348-0.064,0.67-0.193,0.968s-0.305,0.559-0.528,0.781c-0.223,0.224-0.484,0.399-0.781,0.528
			c-0.298,0.129-0.616,0.193-0.953,0.193c-0.337,0-0.655-0.064-0.953-0.193c-0.298-0.129-0.558-0.305-0.781-0.528
			c-0.224-0.223-0.4-0.483-0.529-0.781s-0.193-0.62-0.193-0.968v-8.216h1.518v8.067c0,0.377,0.089,0.655,0.268,0.834
			c0.179,0.178,0.402,0.268,0.67,0.268c0.268,0,0.491-0.09,0.669-0.268c0.179-0.179,0.268-0.457,0.268-0.834v-8.067h1.518V32.901z"
			/>
		<path d="M16.387,24.686h2.248c0.863,0,1.523,0.241,1.979,0.723c0.457,0.48,0.685,1.153,0.685,2.017v4.956
			c0,0.992-0.241,1.725-0.722,2.195c-0.481,0.472-1.173,0.707-2.076,0.707h-2.114V24.686z M17.905,33.854h0.7
			c0.427,0,0.729-0.106,0.908-0.32c0.179-0.213,0.268-0.548,0.268-1.005v-5.104c0-0.417-0.084-0.739-0.253-0.968
			c-0.169-0.229-0.477-0.343-0.923-0.343h-0.7V33.854z"/>
		<path d="M24.529,24.686h1.265l2.366,10.598h-1.518l-0.446-2.277h-2.069l-0.447,2.277h-1.518L24.529,24.686z M25.168,27.737h-0.03
			l-0.744,3.84h1.518L25.168,27.737z"/>
		<path d="M29.187,24.686h2.248c0.863,0,1.523,0.241,1.979,0.723c0.457,0.48,0.685,1.153,0.685,2.017v4.956
			c0,0.992-0.241,1.725-0.722,2.195c-0.481,0.472-1.173,0.707-2.076,0.707h-2.114V24.686z M30.705,33.854h0.7
			c0.427,0,0.729-0.106,0.908-0.32c0.179-0.213,0.268-0.548,0.268-1.005v-5.104c0-0.417-0.084-0.739-0.253-0.968
			c-0.169-0.229-0.477-0.343-0.923-0.343h-0.7V33.854z"/>
		<path d="M42.403,32.782c0,0.348-0.059,0.678-0.178,0.99s-0.291,0.588-0.514,0.826s-0.494,0.427-0.811,0.565
			c-0.318,0.139-0.68,0.208-1.086,0.208c-0.486,0-0.891-0.106-1.213-0.319c-0.322-0.214-0.578-0.425-0.767-0.633l1.191-0.952
			c0.109,0.109,0.235,0.2,0.379,0.275c0.144,0.074,0.295,0.111,0.454,0.111c0.089,0,0.193-0.018,0.312-0.052
			c0.119-0.035,0.231-0.1,0.335-0.194c0.104-0.094,0.193-0.223,0.268-0.387c0.074-0.164,0.111-0.38,0.111-0.647v-7.889h1.518V32.782
			z"/>
		<path d="M49.042,32.901c0,0.348-0.064,0.67-0.193,0.968s-0.305,0.559-0.528,0.781c-0.223,0.224-0.484,0.399-0.781,0.528
			c-0.298,0.129-0.616,0.193-0.953,0.193c-0.337,0-0.655-0.064-0.953-0.193c-0.298-0.129-0.558-0.305-0.781-0.528
			c-0.224-0.223-0.4-0.483-0.529-0.781s-0.193-0.62-0.193-0.968v-8.216h1.518v8.067c0,0.377,0.089,0.655,0.268,0.834
			c0.179,0.178,0.402,0.268,0.67,0.268c0.268,0,0.491-0.09,0.669-0.268c0.179-0.179,0.268-0.457,0.268-0.834v-8.067h1.518V32.901z"
			/>
		<path d="M52.257,24.686h1.265l2.366,10.598H54.37l-0.446-2.277h-2.069l-0.447,2.277H49.89L52.257,24.686z M52.896,27.737h-0.03
			l-0.744,3.84h1.518L52.896,27.737z"/>
		<path d="M56.915,24.686h2.441c1.786,0,2.679,1.037,2.679,3.111c0,0.615-0.097,1.144-0.29,1.585
			c-0.194,0.441-0.534,0.796-1.02,1.064l1.637,4.837h-1.607l-1.414-4.524h-0.908v4.524h-1.518V24.686z M58.433,29.419h0.863
			c0.268,0,0.481-0.037,0.64-0.111c0.159-0.075,0.28-0.182,0.365-0.32c0.084-0.139,0.141-0.31,0.171-0.514
			c0.03-0.203,0.045-0.438,0.045-0.707c0-0.268-0.015-0.503-0.045-0.707c-0.03-0.203-0.092-0.377-0.186-0.521
			s-0.226-0.251-0.394-0.32c-0.169-0.069-0.392-0.104-0.67-0.104h-0.789V29.419z"/>
		<path d="M63.553,24.686h4.525v1.429h-3.007v3.111h2.62v1.429h-2.62v3.11h3.007v1.519h-4.525V24.686z"/>
		<path d="M68.867,33.943l2.858-7.829h-2.709v-1.429h4.361v1.206l-2.917,7.963h2.917v1.429h-4.51V33.943z"/>
		<path d="M74.508,33.765h1.518v1.519l-1.518,1.102V33.765z"/>
		<path d="M85.551,32.917c0,0.327-0.062,0.64-0.186,0.938s-0.295,0.558-0.513,0.781c-0.219,0.224-0.474,0.402-0.767,0.536
			c-0.293,0.134-0.608,0.2-0.945,0.2c-0.288,0-0.581-0.039-0.878-0.118c-0.298-0.08-0.566-0.216-0.804-0.41
			c-0.238-0.193-0.434-0.448-0.588-0.767c-0.154-0.317-0.231-0.719-0.231-1.205v-5.835c0-0.347,0.06-0.669,0.179-0.967
			s0.288-0.556,0.506-0.774c0.218-0.218,0.479-0.389,0.782-0.514c0.302-0.124,0.637-0.186,1.004-0.186
			c0.347,0,0.67,0.062,0.968,0.186c0.297,0.125,0.555,0.298,0.774,0.521c0.218,0.223,0.389,0.491,0.513,0.804
			s0.186,0.652,0.186,1.02v0.596h-1.518v-0.507c0-0.298-0.084-0.556-0.253-0.773c-0.169-0.219-0.397-0.328-0.685-0.328
			c-0.377,0-0.628,0.117-0.752,0.351c-0.124,0.232-0.186,0.528-0.186,0.885v5.418c0,0.308,0.067,0.565,0.201,0.774
			c0.134,0.208,0.375,0.312,0.722,0.312c0.099,0,0.206-0.018,0.32-0.052c0.114-0.035,0.218-0.092,0.312-0.172
			c0.094-0.079,0.171-0.188,0.23-0.327s0.089-0.312,0.089-0.521v-0.521h1.518V32.917z"/>
		<path d="M87.084,24.686h1.518v4.54h1.875v-4.54h1.518v10.598h-1.518v-4.718h-1.875v4.718h-1.518V24.686z"/>
	</g>
	<g>
		<path fill="#414042" d="M113.858,12.266l-0.03,0.007c0.379-0.999,0.596-2.077,0.596-3.209c0-5.006-4.058-9.064-9.064-9.064
			c-5.006,0-9.063,4.058-9.063,9.064c0,1.132,0.218,2.21,0.595,3.209l-0.028-0.007l0.11,0.226c0.145,0.353,0.311,0.694,0.497,1.024
			l7.889,16.212l7.89-16.212c0.185-0.33,0.353-0.671,0.498-1.024L113.858,12.266z"/>
	</g>
	<g>
		<path fill="#FDB913" d="M99.423,9.064c0-3.279,2.659-5.938,5.938-5.938c3.28,0,5.938,2.659,5.938,5.938s-2.658,5.938-5.938,5.938
			C102.082,15.002,99.423,12.343,99.423,9.064"/>
	</g>
</g>
</svg>
