<?xml version="1.0" encoding="utf-8"?>
<!-- Generator: Adobe Illustrator 16.0.0, SVG Export Plug-In . SVG Version: 6.00 Build 0)  -->
<!DOCTYPE svg PUBLIC "-//W3C//DTD SVG 1.1//EN" "http://www.w3.org/Graphics/SVG/1.1/DTD/svg11.dtd">
<svg version="1.1" id="Layer_1" xmlns="http://www.w3.org/2000/svg" xmlns:xlink="http://www.w3.org/1999/xlink" x="0px" y="0px"
	 width="15px" height="27px" viewBox="0 0 15 27" enable-background="new 0 0 15 27" xml:space="preserve">
<path fill="#FFFFFF" d="M14.48,12.847c0.041,0.028,0.088,0.047,0.125,0.084c0.17,0.175,0.248,0.404,0.242,0.634
	c0.006,0.228-0.072,0.458-0.242,0.633c-0.037,0.038-0.084,0.056-0.125,0.084L1.593,26.611c-0.33,0.338-0.865,0.338-1.194,0
	c-0.33-0.338-0.33-0.887,0-1.226l12.395-11.823v-0.282L0.399,1.597c-0.33-0.334-0.33-0.876,0-1.21c0.329-0.335,0.864-0.335,1.194,0
	L14.48,12.573c0.041,0.029,0.088,0.046,0.125,0.084c0.17,0.172,0.248,0.4,0.242,0.626c0.006,0.225-0.072,0.453-0.242,0.626
	c-0.037,0.037-0.084,0.054-0.125,0.083"/>
</svg>
