<?xml version="1.0" encoding="UTF-8" standalone="no"?>
<svg width="15px" height="14px" viewBox="0 0 15 14" version="1.1" xmlns="http://www.w3.org/2000/svg" xmlns:xlink="http://www.w3.org/1999/xlink">
    <!-- Generator: Sketch 3.8.3 (29802) - http://www.bohemiancoding.com/sketch -->
    <title>twitter</title>
    <desc>Created with Sketch.</desc>
    <defs></defs>
    <g id="Page-1" stroke="none" stroke-width="1" fill="none" fill-rule="evenodd">
        <g id="twitter" fill="#000000">
            <path d="M13.2202757,2.069623 C13.8553415,1.66118209 14.3426358,1.01353853 14.5713298,0.242039053 C13.9767253,0.621170538 13.3196696,0.895355403 12.6186344,1.04379342 C12.0592136,0.400877181 11.2596639,0 10.3747939,0 C8.67718029,0 7.30149757,1.4796528 7.30149757,3.30440035 C7.30149757,3.56345778 7.32700576,3.81589694 7.37978131,4.05699053 C4.82544461,3.91895263 2.56049385,2.60475621 1.04319674,0.604152167 C0.778439387,1.09390306 0.627149472,1.66118209 0.627149472,2.26627973 C0.627149472,3.41218337 1.16985806,4.42383097 1.99491585,5.01758302 C1.49090933,5.00056465 1.01680896,4.85023571 0.601641289,4.6044148 L0.601641289,4.64506979 C0.601641289,6.24668759 1.66067069,7.58262971 3.06889833,7.88517852 C2.81029813,7.96270666 2.53938363,8.00147072 2.25791402,8.00147072 C2.0600057,8.00147072 1.86649534,7.98161596 1.68002173,7.94285189 C2.07056081,9.25515738 3.20611476,10.211968 4.55189133,10.2374956 C3.49901908,11.1243418 2.17347314,11.6519113 0.733580168,11.6519113 C0.485535075,11.6519113 0.24012876,11.6377293 0,11.606529 C1.36072964,12.5434848 2.97654111,13.0909091 4.71285676,13.0909091 C10.3686367,13.0909091 13.4595249,8.05536223 13.4595249,3.68825916 C13.4595249,3.54454847 13.4577657,3.40178325 13.4516085,3.26090896 C14.0523702,2.79479469 14.5748482,2.21238822 14.9856179,1.54961722 C14.4341134,1.8124565 13.841268,1.99020393 13.2202757,2.069623 Z" id="Shape"></path>
        </g>
    </g>
</svg>